<svg width="1520" height="800" fill="none" xmlns="http://www.w3.org/2000/svg"><path d="M0 32C0 14.327 14.327 0 32 0h421c17.673 0 32 14.327 32 32v292c0 17.673 14.327 32 32 32h486.04c17.66 0 31.98-14.299 32-31.955l.42-292.09C1035.48 14.3 1049.8 0 1067.46 0H1488c17.67 0 32 14.327 32 32v736c0 17.673-14.33 32-32 32h-420.96c-17.69 0-32.02-14.351-32-32.04l.42-335.42c.02-17.689-14.31-32.04-32-32.04H517c-17.673 0-32 14.327-32 32V768c0 17.673-14.327 32-32 32H32c-17.673 0-32-14.327-32-32V32z" fill="#1E1C17"/></svg>