<svg width="869" height="887" fill="none" xmlns="http://www.w3.org/2000/svg"><path d="M0 165c0-30.17 0-45.255 9.373-54.627C18.745 101 33.83 101 64 101h32.142c18.457 0 27.685 0 35.221-4.458 7.536-4.458 11.98-12.545 20.869-28.72l19.036-34.644c8.889-16.175 13.333-24.262 20.869-28.72C199.673 0 208.901 0 227.358 0h576.683c30.17 0 45.255 0 54.627 9.373 9.373 9.372 9.373 24.457 9.373 54.627v36.5c0 30.17 0 45.255-9.373 54.627-9.372 9.373-24.457 9.373-54.627 9.373H439.346c-30.189 0-45.284 0-54.658 9.38-9.374 9.381-9.363 24.475-9.342 54.664l.412 596.217c.02 28.437.03 42.655-8.364 51.834a32.393 32.393 0 01-2.004 2.005c-9.173 8.4-23.391 8.4-51.827 8.4-28.419 0-42.628 0-51.799-8.393a31.569 31.569 0 01-2.004-2.004c-8.393-9.171-8.393-23.38-8.393-51.799V718.483c0-17.664-14.319-31.983-31.983-31.983s-31.983 14.319-31.983 31.983v141.032c0 15.179-12.306 27.485-27.486 27.485-15.179 0-27.485-12.306-27.485-27.485V661.481c0-3.697 0-5.546-.153-7.103-1.49-15.204-13.521-27.235-28.725-28.725-1.558-.153-3.406-.153-7.103-.153-3.697 0-5.546 0-7.103.153-15.204 1.49-27.235 13.521-28.725 28.725-.153 1.557-.153 3.406-.153 7.103v195.285c0 16.698-13.536 30.234-30.234 30.234S0 873.464 0 856.766V165z" fill="#8E623C"/></svg>