<svg width="1520" height="800" viewBox="0 0 1520 800" fill="none" xmlns="http://www.w3.org/2000/svg">
<path d="M0 32C0 14.3269 14.3269 0 32 0H453C470.673 0 485 14.3269 485 32V324C485 341.673 499.327 356 517 356H1003.04C1020.7 356 1035.02 341.701 1035.04 324.045L1035.46 31.9551C1035.48 14.2995 1049.8 0 1067.46 0H1488C1505.67 0 1520 14.3269 1520 32V768C1520 785.673 1505.67 800 1488 800H1067.04C1049.35 800 1035.02 785.649 1035.04 767.96L1035.46 432.54C1035.48 414.851 1021.15 400.5 1003.46 400.5H517C499.327 400.5 485 414.827 485 432.5V768C485 785.673 470.673 800 453 800H32C14.3269 800 0 785.673 0 768V32Z" fill="#1E1C17"/>
</svg>
