<svg width="32" height="32" fill="none" xmlns="http://www.w3.org/2000/svg"><path d="M31.33 9.242a3.812 3.812 0 00-1.021-1.731A4.042 4.042 0 0028.525 6.5c-2.504-.675-12.534-.675-12.534-.675a99.95 99.95 0 00-12.519.64A4.19 4.19 0 001.69 7.502 3.963 3.963 0 00.65 9.241 40.5 40.5 0 000 16.727a40.428 40.428 0 00.65 7.488 3.868 3.868 0 001.034 1.729c.494.481 1.11.829 1.787 1.012 2.537.674 12.519.674 12.519.674 4.187.049 8.373-.165 12.534-.64a4.042 4.042 0 001.784-1.012 3.806 3.806 0 001.02-1.73c.46-2.469.683-4.977.668-7.49a37.001 37.001 0 00-.667-7.518v.002zM12.802 21.394v-9.331l8.345 4.666-8.345 4.665z" fill="#DB9F6A"/></svg>