<svg width="320" height="80" fill="none" xmlns="http://www.w3.org/2000/svg"><path d="M19 32c0-15.085 0-22.627 4.686-27.314C28.373 0 35.916 0 51 0h232.821c1.095 0 1.642 0 2.105.027 8.108.47 14.577 6.94 15.047 15.047.027.463.027 1.01.027 2.105 0 .686 0 1.028.013 1.347a15.998 15.998 0 007.916 13.177c.276.161.578.322 1.183.644l4.073 2.166c3.178 1.69 4.766 2.536 5.34 3.63a4 4 0 010 3.714c-.574 1.094-2.162 1.94-5.34 3.63l-4.073 2.166c-.605.322-.907.483-1.183.644a15.999 15.999 0 00-7.916 13.177c-.013.319-.013.662-.013 1.347 0 1.095 0 1.642-.027 2.105-.47 8.108-6.939 14.577-15.047 15.047-.463.027-1.01.027-2.105.027H51.001c-15.086 0-22.628 0-27.315-4.686C19 70.627 19 63.084 19 48V32z" fill="#DB9F6A"/><path d="M9.888 47.653l-4.073-2.166c-3.177-1.69-4.766-2.536-5.34-3.63a4 4 0 010-3.714c.574-1.094 2.163-1.94 5.34-3.63l4.073-2.166c.605-.322.908-.483 1.183-.644a16 16 0 007.916-13.177c.013-.319.013-.662.013-1.347 0-1.095 0-1.642.027-2.105.47-8.108 6.94-14.577 15.047-15.047C34.537 0 35.084 0 36.18 0H73.5c15.085 0 22.627 0 27.314 4.686C105.5 9.373 105.5 16.916 105.5 32v16c0 15.085 0 22.627-4.686 27.314C96.128 80 88.585 80 73.5 80H36.18c-1.096 0-1.643 0-2.106-.027-8.108-.47-14.577-6.94-15.047-15.047C19 64.463 19 63.916 19 62.82c0-.685 0-1.028-.013-1.347a16 16 0 00-7.916-13.177c-.275-.161-.578-.322-1.183-.644z" fill="#DB9F6A"/></svg>