<svg width="32" height="32" viewBox="0 0 32 32" fill="none" xmlns="http://www.w3.org/2000/svg">
<path fill-rule="evenodd" clip-rule="evenodd" d="M16.0001 8.33334C16.5524 8.33334 17.0001 8.78106 17.0001 9.33334L17.0001 22.6667C17.0001 23.219 16.5524 23.6667 16.0001 23.6667C15.4478 23.6667 15.0001 23.219 15.0001 22.6667L15.0001 9.33334C15.0001 8.78106 15.4478 8.33334 16.0001 8.33334ZM21.3334 12.3333C21.8857 12.3333 22.3334 12.7811 22.3334 13.3333V18.6667C22.3334 19.219 21.8857 19.6667 21.3334 19.6667C20.7811 19.6667 20.3334 19.219 20.3334 18.6667V13.3333C20.3334 12.7811 20.7811 12.3333 21.3334 12.3333ZM11.6667 13.3333C11.6667 12.7811 11.219 12.3333 10.6667 12.3333C10.1145 12.3333 9.66675 12.7811 9.66675 13.3333L9.66675 18.6667C9.66675 19.219 10.1145 19.6667 10.6667 19.6667C11.219 19.6667 11.6667 19.219 11.6667 18.6667L11.6667 13.3333Z" fill="#FFF4EB"/>
</svg>
