<svg width="32" height="32" fill="none" xmlns="http://www.w3.org/2000/svg"><g clip-path="url(#clip0_12_198)"><path d="M16 0C7.164 0 0 7.164 0 16s7.164 16 16 16 16-7.164 16-16S24.836 0 16 0zm7.69 12.06c.01.169.01.344.01.515 0 5.243-3.993 11.282-11.29 11.282a11.25 11.25 0 01-6.092-1.778c.321.035.628.05.957.05a7.958 7.958 0 004.925-1.693 3.967 3.967 0 01-3.707-2.75c.61.089 1.16.089 1.79-.072a3.964 3.964 0 01-3.176-3.893v-.05a3.968 3.968 0 001.79.504 3.969 3.969 0 01-1.768-3.3c0-.74.192-1.414.539-2a11.26 11.26 0 008.178 4.146c-.56-2.696 1.454-4.878 3.875-4.878 1.143 0 2.172.478 2.897 1.25a7.836 7.836 0 002.518-.954 3.948 3.948 0 01-1.743 2.182 7.845 7.845 0 002.286-.617 8.314 8.314 0 01-1.99 2.057z" fill="#DB9F6A"/></g><defs><clipPath id="clip0_12_198"><path fill="#fff" d="M0 0h32v32H0z"/></clipPath></defs></svg>