<svg width="362" height="80" viewBox="0 0 362 80" fill="none" xmlns="http://www.w3.org/2000/svg">
<path d="M40 32C40 16.9151 40 9.37258 44.6863 4.68629C49.3726 0 56.9151 0 72 0H304.821C305.916 0 306.463 0 306.926 0.0268073C315.034 0.496736 321.503 6.96637 321.973 15.0742C322 15.5367 322 16.0843 322 17.1794C322 17.8645 322 18.207 322.013 18.5258C322.23 23.9812 325.215 28.9491 329.929 31.7031C330.205 31.8641 330.507 32.025 331.112 32.3467L335.185 34.5132C338.363 36.2035 339.951 37.0486 340.525 38.1426C341.135 39.3058 341.135 40.6942 340.525 41.8574C339.951 42.9514 338.363 43.7965 335.185 45.4868L331.112 47.6533C330.507 47.975 330.205 48.1359 329.929 48.2968C325.215 51.0509 322.23 56.0188 322.013 61.4742C322 61.793 322 62.1355 322 62.8206C322 63.9157 322 64.4633 321.973 64.9258C321.503 73.0336 315.034 79.5033 306.926 79.9732C306.463 80 305.916 80 304.821 80H72.0001C56.9151 80 49.3726 80 44.6863 75.3137C40 70.6274 40 63.0849 40 48V32Z" fill="#DB9F6A"/>
<path d="M30.8883 47.6533L26.8152 45.4868C23.6375 43.7965 22.0487 42.9514 21.4751 41.8574C20.8652 40.6942 20.8652 39.3058 21.4751 38.1426C22.0487 37.0486 23.6375 36.2035 26.8152 34.5132L30.8883 32.3467C31.4928 32.0251 31.7956 31.8641 32.071 31.7031C36.7852 28.9491 39.7697 23.9812 39.9873 18.5258C40 18.207 40 17.8645 40 17.1794C40 16.0843 40 15.5367 40.0269 15.0742C40.4968 6.96637 46.9664 0.496736 55.0742 0.0268073C55.5368 0 56.0843 0 57.1795 0H94.5C109.585 0 117.127 0 121.814 4.68629C126.5 9.37258 126.5 16.9151 126.5 32V48C126.5 63.0849 126.5 70.6274 121.814 75.3137C117.127 80 109.585 80 94.5 80H57.1795C56.0843 80 55.5368 80 55.0742 79.9732C46.9664 79.5033 40.4968 73.0336 40.0269 64.9258C40 64.4633 40 63.9157 40 62.8206C40 62.1355 40 61.793 39.9873 61.4742C39.7697 56.0188 36.7852 51.0509 32.071 48.2968C31.7956 48.1359 31.4931 47.975 30.8883 47.6533Z" fill="#DB9F6A"/>
<path d="M261.5 0C258.7 57.6 209.333 77.3333 185 80H308V0H261.5Z" fill="url(#paint0_linear_281_81)" fill-opacity="0.2"/>
<path d="M131.5 0C128.7 57.6 79.3333 77.3333 55 80L178 80V0L131.5 0Z" fill="url(#paint1_linear_281_81)" fill-opacity="0.2"/>
<path d="M353.086 34.4142C353.867 33.6332 355.133 33.6332 355.914 34.4142L360.586 39.0858C361.367 39.8668 361.367 41.1332 360.586 41.9142L355.914 46.5858C355.133 47.3668 353.867 47.3668 353.086 46.5858L348.414 41.9142C347.633 41.1332 347.633 39.8668 348.414 39.0858L353.086 34.4142Z" fill="#DB9F6A"/>
<path d="M6.08579 34.4142C6.86683 33.6332 8.13317 33.6332 8.91421 34.4142L13.5858 39.0858C14.3668 39.8668 14.3668 41.1332 13.5858 41.9142L8.91421 46.5858C8.13317 47.3668 6.86684 47.3668 6.08579 46.5858L1.41421 41.9142C0.633165 41.1332 0.633165 39.8668 1.41421 39.0858L6.08579 34.4142Z" fill="#DB9F6A"/>
<defs>
<linearGradient id="paint0_linear_281_81" x1="220" y1="24" x2="261.5" y2="60" gradientUnits="userSpaceOnUse">
<stop stop-color="#342416"/>
<stop offset="1" stop-color="#342416" stop-opacity="0"/>
</linearGradient>
<linearGradient id="paint1_linear_281_81" x1="90" y1="24" x2="131.5" y2="60" gradientUnits="userSpaceOnUse">
<stop stop-color="#342416"/>
<stop offset="1" stop-color="#342416" stop-opacity="0"/>
</linearGradient>
</defs>
</svg>
